<svg width="16" height="17" viewBox="0 0 16 17" fill="none" xmlns="http://www.w3.org/2000/svg">
    <path fill-rule="evenodd" clip-rule="evenodd"
        d="M5.26084 2.52174C5.71475 2.28781 6.19535 2.10932 6.69216 1.99026L6.92014 2.94159C6.49976 3.04233 6.09307 3.19336 5.70899 3.39131C5.31052 3.59666 4.93639 3.8525 4.59648 4.15508C3.97646 4.707 3.49763 5.39013 3.18974 6.1473L2.28354 5.7788C2.64738 4.88403 3.21327 4.07666 3.94603 3.42438C4.34772 3.06682 4.78991 2.76444 5.26084 2.52174ZM9.65567 1.99026C10.6707 2.2335 11.618 2.72482 12.4081 3.43003C13.0184 3.97471 13.5125 4.62707 13.8701 5.34782L12.9937 5.78261C12.6911 5.17271 12.2731 4.62074 11.7567 4.15986C11.0882 3.56316 10.2866 3.14742 9.42769 2.94159L9.65567 1.99026Z"
        fill="#243144" />
    <path fill-rule="evenodd" clip-rule="evenodd"
        d="M2.30435 7.19565C2.48444 7.19565 2.63043 7.04966 2.63043 6.86957C2.63043 6.68947 2.48444 6.54348 2.30435 6.54348C2.12426 6.54348 1.97826 6.68947 1.97826 6.86957C1.97826 7.04966 2.12426 7.19565 2.30435 7.19565ZM2.30435 8.17391C3.02472 8.17391 3.6087 7.58994 3.6087 6.86957C3.6087 6.14919 3.02472 5.56522 2.30435 5.56522C1.58398 5.56522 1 6.14919 1 6.86957C1 7.58994 1.58398 8.17391 2.30435 8.17391Z"
        fill="#243144" />
    <path fill-rule="evenodd" clip-rule="evenodd"
        d="M13.7174 9.15217C14.7979 9.15217 15.6739 8.27621 15.6739 7.19565C15.6739 6.1151 14.7979 5.23913 13.7174 5.23913C12.6368 5.23913 11.7609 6.1151 11.7609 7.19565C11.7609 8.27621 12.6368 9.15217 13.7174 9.15217Z"
        fill="#243144" />
    <path fill-rule="evenodd" clip-rule="evenodd"
        d="M8.17391 3.28261C8.5341 3.28261 8.82609 2.99062 8.82609 2.63043C8.82609 2.27025 8.5341 1.97826 8.17391 1.97826C7.81373 1.97826 7.52174 2.27025 7.52174 2.63043C7.52174 2.99062 7.81373 3.28261 8.17391 3.28261ZM8.17391 4.26087C9.07438 4.26087 9.80435 3.5309 9.80435 2.63043C9.80435 1.72997 9.07438 1 8.17391 1C7.27345 1 6.54348 1.72997 6.54348 2.63043C6.54348 3.5309 7.27345 4.26087 8.17391 4.26087Z"
        fill="#243144" />
    <path fill-rule="evenodd" clip-rule="evenodd"
        d="M10.1304 11.7609H6.21739C5.31693 11.7609 4.58696 12.4908 4.58696 13.3913V15.0217H11.7609V13.3913C11.7609 12.4908 11.0309 11.7609 10.1304 11.7609ZM6.21739 10.7826C4.77665 10.7826 3.6087 11.9506 3.6087 13.3913V16H12.7391V13.3913C12.7391 11.9506 11.5712 10.7826 10.1304 10.7826H6.21739Z"
        fill="#243144" />
    <path fill-rule="evenodd" clip-rule="evenodd"
        d="M8.17391 10.4565C9.25447 10.4565 10.1304 9.58056 10.1304 8.5C10.1304 7.41944 9.25447 6.54348 8.17391 6.54348C7.09336 6.54348 6.21739 7.41944 6.21739 8.5C6.21739 9.58056 7.09336 10.4565 8.17391 10.4565ZM8.17391 11.4348C9.79475 11.4348 11.1087 10.1208 11.1087 8.5C11.1087 6.87916 9.79475 5.56522 8.17391 5.56522C6.55308 5.56522 5.23913 6.87916 5.23913 8.5C5.23913 10.1208 6.55308 11.4348 8.17391 11.4348Z"
        fill="#243144" />
    <path fill-rule="evenodd" clip-rule="evenodd"
        d="M14.4276 6.62659C14.5221 6.72317 14.5203 6.87801 14.4238 6.97244L13.6838 7.75095C13.6371 7.79666 13.574 7.82174 13.5086 7.82062C13.4433 7.81949 13.3811 7.79224 13.3359 7.74495L12.9209 7.31017C12.8276 7.21247 12.8312 7.05766 12.929 6.9644C13.0267 6.87113 13.1815 6.87473 13.2747 6.97244L13.5188 7.22817L14.0818 6.62271C14.1784 6.52828 14.3332 6.53002 14.4276 6.62659Z"
        fill="#243144" />
    <path fill-rule="evenodd" clip-rule="evenodd"
        d="M5.26084 2.52174C5.71475 2.28781 6.19535 2.10932 6.69216 1.99026L6.92014 2.94159C6.49976 3.04233 6.09307 3.19336 5.70899 3.39131C5.31052 3.59666 4.93639 3.8525 4.59648 4.15508C3.97646 4.707 3.49763 5.39013 3.18974 6.1473L2.28354 5.7788C2.64738 4.88403 3.21327 4.07666 3.94603 3.42438C4.34772 3.06682 4.78991 2.76444 5.26084 2.52174ZM9.65567 1.99026C10.6707 2.2335 11.618 2.72482 12.4081 3.43003C13.0184 3.97471 13.5125 4.62707 13.8701 5.34782L12.9937 5.78261C12.6911 5.17271 12.2731 4.62074 11.7567 4.15986C11.0882 3.56316 10.2866 3.14742 9.42769 2.94159L9.65567 1.99026Z"
        stroke="#243144" stroke-width="0.25" stroke-linecap="round" />
    <path fill-rule="evenodd" clip-rule="evenodd"
        d="M2.30435 7.19565C2.48444 7.19565 2.63043 7.04966 2.63043 6.86957C2.63043 6.68947 2.48444 6.54348 2.30435 6.54348C2.12426 6.54348 1.97826 6.68947 1.97826 6.86957C1.97826 7.04966 2.12426 7.19565 2.30435 7.19565ZM2.30435 8.17391C3.02472 8.17391 3.6087 7.58994 3.6087 6.86957C3.6087 6.14919 3.02472 5.56522 2.30435 5.56522C1.58398 5.56522 1 6.14919 1 6.86957C1 7.58994 1.58398 8.17391 2.30435 8.17391Z"
        stroke="#243144" stroke-width="0.25" stroke-linecap="round" />
    <path fill-rule="evenodd" clip-rule="evenodd"
        d="M13.7174 9.15217C14.7979 9.15217 15.6739 8.27621 15.6739 7.19565C15.6739 6.1151 14.7979 5.23913 13.7174 5.23913C12.6368 5.23913 11.7609 6.1151 11.7609 7.19565C11.7609 8.27621 12.6368 9.15217 13.7174 9.15217Z"
        stroke="#243144" stroke-width="0.25" stroke-linecap="round" />
    <path fill-rule="evenodd" clip-rule="evenodd"
        d="M8.17391 3.28261C8.5341 3.28261 8.82609 2.99062 8.82609 2.63043C8.82609 2.27025 8.5341 1.97826 8.17391 1.97826C7.81373 1.97826 7.52174 2.27025 7.52174 2.63043C7.52174 2.99062 7.81373 3.28261 8.17391 3.28261ZM8.17391 4.26087C9.07438 4.26087 9.80435 3.5309 9.80435 2.63043C9.80435 1.72997 9.07438 1 8.17391 1C7.27345 1 6.54348 1.72997 6.54348 2.63043C6.54348 3.5309 7.27345 4.26087 8.17391 4.26087Z"
        stroke="#243144" stroke-width="0.25" stroke-linecap="round" />
    <path fill-rule="evenodd" clip-rule="evenodd"
        d="M10.1304 11.7609H6.21739C5.31693 11.7609 4.58696 12.4908 4.58696 13.3913V15.0217H11.7609V13.3913C11.7609 12.4908 11.0309 11.7609 10.1304 11.7609ZM6.21739 10.7826C4.77665 10.7826 3.6087 11.9506 3.6087 13.3913V16H12.7391V13.3913C12.7391 11.9506 11.5712 10.7826 10.1304 10.7826H6.21739Z"
        stroke="#243144" stroke-width="0.25" stroke-linecap="round" />
    <path fill-rule="evenodd" clip-rule="evenodd"
        d="M8.17391 10.4565C9.25447 10.4565 10.1304 9.58056 10.1304 8.5C10.1304 7.41944 9.25447 6.54348 8.17391 6.54348C7.09336 6.54348 6.21739 7.41944 6.21739 8.5C6.21739 9.58056 7.09336 10.4565 8.17391 10.4565ZM8.17391 11.4348C9.79475 11.4348 11.1087 10.1208 11.1087 8.5C11.1087 6.87916 9.79475 5.56522 8.17391 5.56522C6.55308 5.56522 5.23913 6.87916 5.23913 8.5C5.23913 10.1208 6.55308 11.4348 8.17391 11.4348Z"
        stroke="#243144" stroke-width="0.25" stroke-linecap="round" />
    <path fill-rule="evenodd" clip-rule="evenodd"
        d="M14.4276 6.62659C14.5221 6.72317 14.5203 6.87801 14.4238 6.97244L13.6838 7.75095C13.6371 7.79666 13.574 7.82174 13.5086 7.82062C13.4433 7.81949 13.3811 7.79224 13.3359 7.74495L12.9209 7.31017C12.8276 7.21247 12.8312 7.05766 12.929 6.9644C13.0267 6.87113 13.1815 6.87473 13.2747 6.97244L13.5188 7.22817L14.0818 6.62271C14.1784 6.52828 14.3332 6.53002 14.4276 6.62659Z"
        stroke="#243144" stroke-width="0.25" stroke-linecap="round" />
    <path d="M12.7391 7.27717L13.3617 7.92935L14.6957 6.625" stroke="white" stroke-width="0.75"
        stroke-linecap="round" stroke-linejoin="round" />
</svg>
    