<svg width="337" height="72" viewBox="0 0 337 72" fill="none" xmlns="http://www.w3.org/2000/svg">
<mask id="mask0_4105_2109" style="mask-type:alpha" maskUnits="userSpaceOnUse" x="0" y="0" width="337" height="72">
<rect width="337" height="72" fill="#D9D9D9"/>
</mask>
<g mask="url(#mask0_4105_2109)">
<path opacity="0.3" d="M72.7734 23.3594C72.0996 22.9102 71.875 22.2363 71.875 21.5625C71.875 20.8887 72.0996 20.4395 72.7734 19.9902L86.25 14.375L91.6406 1.12305C92.0898 0.449219 92.7637 0 93.4375 0C94.1113 0 94.5605 0.449219 95.0098 1.12305L100.625 14.375L113.877 19.9902C114.551 20.4395 115 20.8887 115 21.5625C115 22.2363 114.551 22.9102 113.877 23.3594L100.625 28.75L95.0098 42.2266C94.5605 42.9004 94.1113 43.125 93.4375 43.125C92.7637 43.125 92.0898 42.9004 91.6406 42.2266L86.25 28.75L72.7734 23.3594ZM113.877 91.8652C114.551 92.3145 115 92.7637 115 93.4375C115 94.1113 114.551 94.7852 113.877 95.2344L100.625 100.625L95.0098 114.102C94.5605 114.775 94.1113 115 93.4375 115C92.7637 115 92.0898 114.775 91.6406 114.102L86.25 100.625L72.7734 95.2344C72.0996 94.7852 71.875 94.1113 71.875 93.4375C71.875 92.7637 72.0996 92.3145 72.7734 91.8652L86.25 86.25L91.6406 72.998C92.0898 72.3242 92.7637 71.875 93.4375 71.875C94.1113 71.875 94.5605 72.3242 95.0098 72.998L100.625 86.25L113.877 91.8652ZM86.25 57.5C86.25 58.8477 85.3516 60.1953 84.2285 60.6445L58.8477 73.4473L46.2695 98.8281C45.5957 99.9512 44.248 100.625 43.125 100.625C41.5527 100.625 40.4297 99.9512 39.7559 98.8281L27.1777 73.4473L1.79688 60.6445C0.673828 60.1953 0 58.8477 0 57.5C0 56.1523 0.673828 54.8047 1.79688 54.3555L27.1777 41.5527L39.7559 16.3965C41.1035 13.9258 44.9219 13.9258 46.2695 16.3965L58.8477 41.5527L84.2285 54.3555C85.3516 54.8047 86.25 56.1523 86.25 57.5Z" fill="#19D89F"/>
</g>
</svg>
