<svg width="317" height="72" viewBox="0 0 317 72" fill="none" xmlns="http://www.w3.org/2000/svg">
<mask id="mask0_4055_603" style="mask-type:alpha" maskUnits="userSpaceOnUse" x="0" y="0" width="317" height="72">
<rect width="317" height="72" fill="#5959EB"/>
</mask>
<g mask="url(#mask0_4055_603)">
<circle cx="74.5" cy="38.5" r="177.5" fill="#24245E"/>
<circle cx="78.5" cy="38.5" r="127.5" fill="#35358D"/>
<circle cx="78.5" cy="38.5" r="87.5" fill="#412ED5"/>
<circle cx="68.5" cy="38.5" r="64.5" fill="#5959EB"/>
<path d="M52 22.4545C52 19.4421 54.4421 17 57.4545 17H86.5455C89.5579 17 92 19.4421 92 22.4545V51.5455C92 54.5579 89.5579 57 86.5455 57H57.4545C54.4421 57 52 54.5579 52 51.5455V22.4545Z" fill="black"/>
<path d="M50 20.4545C50 17.4421 52.4421 15 55.4545 15H84.5455C87.5579 15 90 17.4421 90 20.4545V49.5455C90 53.5 88.5 55 84.5455 55H55.4545C52.4421 55 50 52.5579 50 49.5455V20.4545Z" fill="#F0F2F2"/>
<path fill-rule="evenodd" clip-rule="evenodd" d="M74.6117 40.0156C74.8347 39.5694 75.3773 39.3886 75.8234 39.6117L83.0491 43.2244C83.3551 43.3774 83.5484 43.6901 83.5484 44.0322C83.5484 44.3743 83.3551 44.6871 83.0491 44.8401L75.8234 48.4528C75.3773 48.6759 74.8347 48.4951 74.6117 48.0489C74.3886 47.6028 74.5694 47.0602 75.0156 46.8372L80.6255 44.0322L75.0156 41.2273C74.5694 41.0043 74.3886 40.4617 74.6117 40.0156Z" fill="#595959"/>
<path fill-rule="evenodd" clip-rule="evenodd" d="M65.3883 48.0489C65.1653 48.495 64.6227 48.6759 64.1766 48.4528L56.9509 44.84C56.6449 44.6871 56.4516 44.3743 56.4516 44.0322C56.4516 43.6901 56.6449 43.3774 56.9509 43.2244L64.1766 39.6116C64.6227 39.3886 65.1653 39.5694 65.3883 40.0155C65.6114 40.4617 65.4306 41.0042 64.9844 41.2273L59.3745 44.0322L64.9844 46.8371C65.4306 47.0602 65.6114 47.6027 65.3883 48.0489Z" fill="#595959"/>
<path fill-rule="evenodd" clip-rule="evenodd" d="M67.6529 49.7017C67.1718 49.5582 66.898 49.0519 67.0415 48.5707L70.565 36.7539C70.7085 36.2727 71.2148 35.999 71.696 36.1425C72.1771 36.2859 72.4509 36.7923 72.3074 37.2734L68.7839 49.0902C68.6404 49.5714 68.1341 49.8451 67.6529 49.7017Z" fill="#595959"/>
<path d="M59.0211 32.1162C58.8448 32.6816 58.3394 33.0644 57.7692 33.0644V33.0644C56.8647 33.0644 56.2296 32.1351 56.5248 31.2435L59.6436 21.8223C59.9727 20.8282 60.8702 20.1611 61.8787 20.1611V20.1611C62.8876 20.1611 63.7854 20.8287 64.1142 21.8234L67.2284 31.2439C67.5231 32.1355 66.888 33.0644 65.9837 33.0644V33.0644C65.4131 33.0644 64.9076 32.6812 64.7314 32.1154L61.9424 23.1577C61.9335 23.1291 61.9079 23.1097 61.8791 23.1097V23.1097C61.8503 23.1097 61.8248 23.1291 61.8158 23.1576L59.0211 32.1162ZM58.5501 29.0573C58.5501 28.4692 59.0073 27.9925 59.5712 27.9925H64.1508C64.7147 27.9925 65.1719 28.4692 65.1719 29.0573V29.0573C65.1719 29.6454 64.7147 30.1221 64.1508 30.1221H59.5712C59.0073 30.1221 58.5501 29.6454 58.5501 29.0573V29.0573Z" fill="#6AB633"/>
<path d="M70.6275 20.1611C71.3499 20.1611 71.9355 20.7718 71.9355 21.5252V31.7003C71.9355 32.4537 71.3499 33.0644 70.6275 33.0644V33.0644C69.9051 33.0644 69.3195 32.4537 69.3195 31.7003V21.5252C69.3195 20.7718 69.9051 20.1611 70.6275 20.1611V20.1611Z" fill="#6AB633"/>
</g>
</svg>
